<svg width="330" height="30" viewBox="0 0 330 30" fill="none" xmlns="http://www.w3.org/2000/svg">
<path d="M8.78125 20.6562C14.25 20.6562 16.9844 17.5104 16.9844 11.2188C16.9844 5.73958 14.25 3 8.78125 3H3.54688V20.6562H8.78125ZM0.65625 23V0.65625H8.78125C16.1771 0.65625 19.875 4.17708 19.875 11.2188C19.875 19.0729 16.1771 23 8.78125 23H0.65625ZM25.8906 14.7344C25.8906 18.6823 27.5312 20.6562 30.8125 20.6562C34.0938 20.6562 35.7344 18.6823 35.7344 14.7344C35.7344 10.8698 34.0938 8.9375 30.8125 8.9375C27.5312 8.9375 25.8906 10.8698 25.8906 14.7344ZM23 14.7969C23 9.32812 25.6042 6.59375 30.8125 6.59375C36.0208 6.59375 38.625 9.32812 38.625 14.7969C38.625 20.2552 36.0208 22.9844 30.8125 22.9844C25.625 22.9844 23.0208 20.2552 23 14.7969ZM54.875 22.5312C53.5208 22.8438 52.0625 23 50.5 23C44.6667 23 41.75 20.1615 41.75 14.4844C41.75 9.22396 44.6667 6.59375 50.5 6.59375C52.0625 6.59375 53.5208 6.75 54.875 7.0625V9.40625C53.5208 9.09375 52.0104 8.9375 50.3438 8.9375C46.5417 8.9375 44.6406 10.7865 44.6406 14.4844C44.6406 18.599 46.5417 20.6562 50.3438 20.6562C52.0104 20.6562 53.5208 20.5 54.875 20.1875V22.5312ZM72.7031 6.59375V23H70.7188L70.2188 20.9062C68.2292 22.3021 66.2292 23 64.2188 23C60.4479 23 58.5625 20.9635 58.5625 16.8906V6.59375H61.4531V16.9375C61.4531 19.375 62.6615 20.5938 65.0781 20.5938C66.7344 20.5938 68.3125 19.901 69.8125 18.5156V6.59375H72.7031ZM77.4062 23V6.59375H79.3594L79.8438 8.65625C81.4167 7.28125 83.1302 6.59375 84.9844 6.59375C87.3594 6.59375 88.9792 7.34375 89.8438 8.84375C91.625 7.34375 93.4323 6.59375 95.2656 6.59375C99.0365 6.59375 100.922 8.67188 100.922 12.8281V23H98.0312V12.6719C98.0312 10.224 97 9 94.9375 9C93.3958 9 91.9531 9.70833 90.6094 11.125V23H87.7188V12.7188C87.7188 10.2396 86.6979 9 84.6562 9C83.0312 9 81.5781 9.70833 80.2969 11.125V23H77.4062ZM112.391 6.59375C117.057 6.59375 119.391 8.90104 119.391 13.5156C119.391 14.1719 119.344 14.875 119.25 15.625H107.734C107.734 18.9792 109.693 20.6562 113.609 20.6562C115.474 20.6562 117.13 20.4479 118.578 20.0312V22.375C117.13 22.7917 115.37 23 113.297 23C107.661 23 104.844 20.2031 104.844 14.6094C104.844 9.26562 107.359 6.59375 112.391 6.59375ZM107.734 13.2188H116.609C116.547 10.3438 115.141 8.90625 112.391 8.90625C109.474 8.90625 107.922 10.3438 107.734 13.2188ZM123.281 23V6.59375H125.234L125.75 8.6875C127.427 7.29167 129.271 6.59375 131.281 6.59375C135.375 6.59375 137.422 8.63021 137.422 12.7031V23H134.531V12.6562C134.531 10.2188 133.318 9 130.891 9C129.234 9 127.661 9.69271 126.172 11.0781V23H123.281ZM142.125 3.9375H143.938L144.562 6.59375H149V8.9375H145.016V18.3594C145.016 19.8906 145.677 20.6562 147 20.6562H149V23H146.25C143.5 23 142.125 21.526 142.125 18.5781V3.9375ZM159.453 6.59375C164.12 6.59375 166.453 8.90104 166.453 13.5156C166.453 14.1719 166.406 14.875 166.312 15.625H154.797C154.797 18.9792 156.755 20.6562 160.672 20.6562C162.536 20.6562 164.193 20.4479 165.641 20.0312V22.375C164.193 22.7917 162.432 23 160.359 23C154.724 23 151.906 20.2031 151.906 14.6094C151.906 9.26562 154.422 6.59375 159.453 6.59375ZM154.797 13.2188H163.672C163.609 10.3438 162.203 8.90625 159.453 8.90625C156.536 8.90625 154.984 10.3438 154.797 13.2188ZM181.359 9.9375C180.193 9.375 178.859 9.09375 177.359 9.09375C174.057 9.09375 172.406 10.849 172.406 14.3594C172.406 18.5156 174.057 20.5938 177.359 20.5938C178.859 20.5938 180.193 20.3906 181.359 19.9844V9.9375ZM184.25 22.0156C182.26 22.6719 179.807 23 176.891 23C172.005 23 169.562 20.1562 169.562 14.4688C169.562 9.21875 172.156 6.59375 177.344 6.59375C178.76 6.59375 180.099 6.85417 181.359 7.375V0.65625H184.25V22.0156ZM197.062 23V0.65625H206.594C210.844 0.65625 212.969 2.39062 212.969 5.85938C212.969 8.40104 211.583 10.2188 208.812 11.3125C211.771 11.8646 213.25 13.5573 213.25 16.3906C213.25 20.7969 210.922 23 206.266 23H197.062ZM206.094 20.6562C208.76 20.6562 210.094 19.3021 210.094 16.5938C210.094 13.9583 208.307 12.6406 204.734 12.6406H203.484V10.75C207.755 10.1771 209.891 8.63542 209.891 6.125C209.891 4.04167 208.703 3 206.328 3H199.953V20.6562H206.094ZM215.578 6.59375H218.719L223.359 19.4062L228.156 6.59375H231.219L224.406 23.4844C223.198 26.4635 221.385 28.3229 218.969 29.0625L217.859 27.0156C219.693 26.2135 221.026 24.9062 221.859 23.0938L215.578 6.59375ZM241.75 22.2188V19.5625C244.094 20.3958 246.625 20.8125 249.344 20.8125C253.188 20.8125 255.109 19.4062 255.109 16.5938C255.109 14.1979 253.693 13 250.859 13H247.984C243.307 13 240.969 10.9688 240.969 6.90625C240.969 2.63542 243.964 0.5 249.953 0.5C252.557 0.5 254.979 0.8125 257.219 1.4375V4.09375C254.979 3.26042 252.557 2.84375 249.953 2.84375C245.891 2.84375 243.859 4.19792 243.859 6.90625C243.859 9.30208 245.234 10.5 247.984 10.5H250.859C255.62 10.5 258 12.5312 258 16.5938C258 20.9688 255.115 23.1562 249.344 23.1562C246.625 23.1562 244.094 22.8438 241.75 22.2188ZM274.25 22.5312C272.896 22.8438 271.438 23 269.875 23C264.042 23 261.125 20.1615 261.125 14.4844C261.125 9.22396 264.042 6.59375 269.875 6.59375C271.438 6.59375 272.896 6.75 274.25 7.0625V9.40625C272.896 9.09375 271.385 8.9375 269.719 8.9375C265.917 8.9375 264.016 10.7865 264.016 14.4844C264.016 18.599 265.917 20.6562 269.719 20.6562C271.385 20.6562 272.896 20.5 274.25 20.1875V22.5312ZM277.938 23V6.59375H279.891L280.406 8.6875C281.844 7.29167 283.573 6.59375 285.594 6.59375V9C283.635 9 282.047 9.69271 280.828 11.0781V23H277.938ZM291.703 6.59375V23H288.812V6.59375H291.703ZM291.703 0.65625V3.39062H288.812V0.65625H291.703ZM299.609 20.1406C300.557 20.4427 301.708 20.5938 303.062 20.5938C306.708 20.5938 308.531 18.5156 308.531 14.3594C308.531 10.849 306.88 9.09375 303.578 9.09375C302.078 9.09375 300.755 9.375 299.609 9.9375V20.1406ZM296.719 0.65625H299.609V7.375C300.849 6.85417 302.177 6.59375 303.594 6.59375C308.781 6.59375 311.375 9.21875 311.375 14.4688C311.375 20.1562 308.651 23 303.203 23C300.849 23 298.688 22.776 296.719 22.3281V0.65625ZM322.047 6.59375C326.714 6.59375 329.047 8.90104 329.047 13.5156C329.047 14.1719 329 14.875 328.906 15.625H317.391C317.391 18.9792 319.349 20.6562 323.266 20.6562C325.13 20.6562 326.786 20.4479 328.234 20.0312V22.375C326.786 22.7917 325.026 23 322.953 23C317.318 23 314.5 20.2031 314.5 14.6094C314.5 9.26562 317.016 6.59375 322.047 6.59375ZM317.391 13.2188H326.266C326.203 10.3438 324.797 8.90625 322.047 8.90625C319.13 8.90625 317.578 10.3438 317.391 13.2188Z" fill="black"/>
</svg>
