<svg height="512pt" viewBox="0 0 512 512.00004" width="512pt" xmlns="http://www.w3.org/2000/svg"><path d="m117 265.5h72v46.625h-72zm0 0" fill="#b3b6c3"/><path d="m501.363281 32.511719c-28.34375 2.191406-67.964843 12.5625-94.140625 49.84375.4375 1.734375.773438 49.648437.773438 49.648437l-26.324219-29.609375s-1.390625 2.324219-3.710937 6.496094c.808593 8.679687 1.390624 15.03125 1.390624 15.03125l-5.472656-7.523437c-12.65625 23.789062-36.957031 74.148437-43.765625 121.566406l24.316407 39.03125-35.761719-6.304688s-.625 81.742188 26.851562 146.511719c56.808594-38.21875 92.679688-106.492187 99.925781-121.144531l-4.023437-2.179688 5.089844-.8125-39.085938-21.1875 45.6875-7.3125c12.269531-40.652344 14.605469-68.621094 14.484375-84.617187l-.316406-.054688.3125-.164062c-.097656-10.742188-1.300781-16.015625-1.300781-16.015625l-33.011719-5.820313 37.5-19.625c22.367188-43.011719 28.832031-82.640625 30.582031-105.757812zm0 0" fill="#36d28f"/><path d="m159.117188 372.910156c-21.925782 1.964844-39.117188 20.378906-39.117188 42.820313 0 13.921875 6.621094 26.289062 16.882812 34.148437 21.925782-1.964844 39.117188-20.378906 39.117188-42.816406 0-13.921875-6.621094-26.292969-16.882812-34.152344zm0 0" fill="#ff5d5d"/><path d="m205.0625 320.125h-93.457031c-23.015625 23.015625-35.921875 35.921875-58.9375 58.9375v107.9375c0 5.734375 2.101562 10.972656 5.570312 15h174.761719c12.703125 0 23-10.296875 23-23v-107.9375c-20.210938-20.210938-32.628906-32.628906-50.9375-50.9375zm-69.398438 126.605469c-23.746093 0-42.996093-19.253907-42.996093-43 0-23.75 19.25-43 42.996093-43 23.75 0 43 19.25 43 43 0 23.746093-19.25 43-43 43zm0 0" fill="#898998"/><path d="m133 354.0625c-29.226562 0-53 23.777344-53 53s23.773438 53 53 53 53-23.777344 53-53-23.777344-53-53-53zm0 86c-18.195312 0-33-14.804688-33-33s14.804688-33 33-33 33 14.804688 33 33-14.804688 33-33 33zm0 0"/><path d="m204.132812 305.054688c-1.414062-1.414063-3.203124-2.359376-5.132812-2.738282v-28.300781c4.726562-.792969 8.332031-4.894531 8.332031-9.847656 0-5.523438-4.480469-10-10-10h-128.664062c-5.523438 0-10 4.476562-10 10 0 4.953125 3.605469 9.054687 8.332031 9.847656v28.300781c-1.929688.378906-3.722656 1.324219-5.132812 2.738282l-58.9375 58.9375c-1.875 1.875-2.929688 4.417968-2.929688 7.070312v107.9375c0 18.195312 14.804688 33 33 33h200c18.195312 0 32.996094-14.804688 32.996094-33v-107.9375c0-2.652344-1.050782-5.195312-2.925782-7.070312zm-25.132812-30.886719v27.957031h-92v-27.957031zm67 204.832031c0 7.167969-5.832031 13-13 13h-7v-51c0-5.523438-4.480469-10-10-10-5.523438 0-10 4.476562-10 10v51h-173c-7.167969 0-13-5.832031-13-13v-103.796875l53.082031-53.078125h119.835938l53.082031 53.078125zm0 0"/><path d="m511.796875 10.800781c-.316406-4.582031-3.71875-8.359375-8.242187-9.15625-.921876-.164062-22.953126-3.941406-50.855469.535157-37.484375 6.007812-67.796875 24.140624-87.660157 52.429687-1.542968 2.203125-2.132812 4.925781-1.648437 7.554687.273437 1.980469 1.355469 13.09375 2.621094 26.433594l-10.253907-14.085937c-1.976562-2.714844-5.179687-4.257813-8.535156-4.105469-3.355468.152344-6.410156 1.972656-8.132812 4.855469-1.765625 2.949219-43.363282 73.042969-52.875 139.28125-.335938 2.332031.164062 4.707031 1.410156 6.707031l12.460938 20.007812-13.683594-2.414062c-2.894532-.511719-5.871094.28125-8.132813 2.164062-2.261719 1.882813-3.578125 4.664063-3.601562 7.605469-.035157 4.667969-.355469 113.324219 43.644531 180.984375l-12.460938 70.664063c-.957031 5.4375 2.671876 10.625 8.113282 11.585937.585937.101563 1.167968.152344 1.746094.152344 4.761718 0 8.980468-3.414062 9.835937-8.265625l12.363281-70.113281c73.421875-41.128906 116.164063-132.261719 117.980469-136.199219 2.210937-4.789063.324219-10.472656-4.3125-12.984375l-13.527344-7.332031 16.640625-2.664063c3.78125-.605468 6.886719-3.320312 7.992188-6.988281 21.152344-70.066406 13.6875-104.539063 13.355468-105.972656-.894531-3.917969-4.050781-6.914063-8.011718-7.613281l-4.101563-.726563 11.492188-6.015625c1.8125-.945312 3.289062-2.429688 4.234375-4.242188 36.019531-69.253906 32.320312-129.546874 32.144531-132.082031zm-148.394531 51.4375c.035156.1875.078125.371094.125.554688-.027344-.109375-.078125-.292969-.125-.554688zm-68.449219 198.421875 23.742187 4.1875c3.878907.679688 7.8125-.980468 10.019532-4.25 2.210937-3.273437 2.289062-7.535156.203125-10.886718l-22.363281-35.894532c7.265624-44.773437 30.253906-92.289062 42.25-114.867187l22.460937 30.859375c2.648437 3.636718 7.398437 5.058594 11.613281 3.46875 4.210938-1.585938 6.84375-5.792969 6.429688-10.273438-3.476563-37.765625-4.996094-53.3125-5.707032-59.910156 16.746094-22.179688 40.832032-35.988281 71.648438-41.066406 8.277344-1.363282 16.015625-1.890625 22.664062-1.992188-10.863281 9.195313-28.824218 25.882813-48.175781 50.09375-28.121093 35.1875-64.550781 93.636719-78.410156 172.238282l-27.492187 155.910156c-22.898438-48.933594-27.828126-111.777344-28.882813-137.617188zm168.378906-129.78125-34.6875 18.15625c-3.792969 1.984375-5.902343 6.160156-5.246093 10.390625s3.933593 7.574219 8.148437 8.316407l25.730469 4.535156c.832031 11.636718.675781 39.214844-11.980469 83.410156l-39.453125 6.320312c-4.230469.675782-7.558594 3.96875-8.277344 8.191407-.71875 4.21875 1.328125 8.429687 5.09375 10.472656l30.859375 16.722656c-11.0625 20.96875-43.355469 76.457031-90.929687 109.6875l28.433594-161.246093c13.074218-74.140626 47.398437-129.375 73.890624-162.65625 18.601563-23.371094 36.054688-39.5 46.1875-48.070313-1.992187 21.960937-8.347656 57.347656-27.769531 95.769531zm0 0"/><path d="m216 417.058594c2.628906 0 5.210938-1.070313 7.066406-2.929688 1.863282-1.859375 2.933594-4.4375 2.933594-7.070312 0-2.628906-1.070312-5.207032-2.933594-7.070313-1.855468-1.859375-4.4375-2.929687-7.066406-2.929687s-5.210938 1.070312-7.070312 2.929687c-1.859376 1.863281-2.929688 4.441407-2.929688 7.070313 0 2.632812 1.070312 5.210937 2.929688 7.070312 1.859374 1.859375 4.441406 2.929688 7.070312 2.929688zm0 0"/></svg>